<svg width="412" height="215" viewBox="0 0 412 215" fill="none" xmlns="http://www.w3.org/2000/svg">
<path d="M52.2 95.3999H98.4L98.4 162C98.4 179 94.2 192.1 85.8 201.3C77.6 210.3 65.4 214.8 49.2 214.8C33 214.8 20.7 210.3 12.3 201.3C4.09995 192.1 -4.84213e-05 179 -4.84213e-05 162L-4.84213e-05 52.7999C-4.84213e-05 35.7999 4.09995 22.7999 12.3 13.7999C20.7 4.5999 33 -9.89437e-05 49.2 -9.89437e-05C65.4 -9.89437e-05 77.6 4.5999 85.8 13.7999C94.2 22.7999 98.4 35.7999 98.4 52.7999V73.1999H67.2V50.6999C67.2 43.0999 65.6 37.7999 62.4 34.7999C59.4 31.5999 55.3 29.9999 50.1 29.9999C44.9 29.9999 40.7 31.5999 37.5 34.7999C34.5 37.7999 33 43.0999 33 50.6999L33 164.1C33 171.7 34.5 177 37.5 180C40.7 183 44.9 184.5 50.1 184.5C55.3 184.5 59.4 183 62.4 180C65.6 177 67.2 171.7 67.2 164.1V125.4H52.2L52.2 95.3999ZM140.894 164.1C140.894 171.7 142.394 177.1 145.394 180.3C148.594 183.3 152.794 184.8 157.994 184.8C163.194 184.8 167.294 183.3 170.294 180.3C173.494 177.1 175.094 171.7 175.094 164.1L175.094 50.6999C175.094 43.0999 173.494 37.7999 170.294 34.7999C167.294 31.5999 163.194 29.9999 157.994 29.9999C152.794 29.9999 148.594 31.5999 145.394 34.7999C142.394 37.7999 140.894 43.0999 140.894 50.6999L140.894 164.1ZM107.894 52.7999C107.894 35.7999 112.194 22.7999 120.794 13.7999C129.394 4.5999 141.794 -9.89437e-05 157.994 -9.89437e-05C174.194 -9.89437e-05 186.594 4.5999 195.194 13.7999C203.794 22.7999 208.094 35.7999 208.094 52.7999L208.094 162C208.094 179 203.794 192.1 195.194 201.3C186.594 210.3 174.194 214.8 157.994 214.8C141.794 214.8 129.394 210.3 120.794 201.3C112.194 192.1 107.894 179 107.894 162L107.894 52.7999Z" fill="#A5E600"/>
<path d="M253.54 90.8999H298.84V120.9L253.54 120.9L253.54 182.4L310.54 182.4V212.4L220.54 212.4L220.54 2.39989L310.54 2.39989V32.3999L253.54 32.3999V90.8999ZM354.989 90.8999L400.289 90.8999V120.9H354.989L354.989 182.4H411.989V212.4H321.989L321.989 2.39989L411.989 2.39989V32.3999L354.989 32.3999V90.8999Z" fill="white"/>
</svg>
