<svg width="24" height="24" viewBox="0 0 24 24" fill="none" xmlns="http://www.w3.org/2000/svg">
<path d="M23.0626 12C23.0624 13.0012 22.7654 13.9798 22.2091 14.8122C21.6529 15.6446 20.8623 16.2934 19.9373 16.6765C19.0123 17.0596 17.9945 17.1599 17.0126 16.9646C16.0307 16.7693 15.1287 16.2873 14.4207 15.5794C14.4124 15.5718 14.4046 15.5636 14.3972 15.555L8.77224 9.2044C8.22029 8.65697 7.51865 8.28516 6.75573 8.13584C5.99282 7.98653 5.20278 8.06638 4.48517 8.36535C3.76757 8.66431 3.15452 9.16901 2.72329 9.81583C2.29206 10.4626 2.06195 11.2226 2.06195 12C2.06195 12.7774 2.29206 13.5374 2.72329 14.1842C3.15452 14.831 3.76757 15.3357 4.48517 15.6347C5.20278 15.9337 5.99282 16.0135 6.75573 15.8642C7.51865 15.7149 8.22029 15.3431 8.77224 14.7957L9.57568 13.8891C9.62492 13.8337 9.6846 13.7885 9.7513 13.7562C9.818 13.7239 9.89041 13.705 9.96441 13.7006C10.0384 13.6963 10.1125 13.7065 10.1826 13.7308C10.2526 13.7551 10.3172 13.793 10.3726 13.8422C10.428 13.8915 10.4731 13.9511 10.5055 14.0178C10.5378 14.0845 10.5567 14.1569 10.561 14.2309C10.5654 14.3049 10.5551 14.3791 10.5308 14.4491C10.5065 14.5191 10.4687 14.5837 10.4194 14.6391L9.60474 15.5588C9.59742 15.5674 9.5896 15.5755 9.5813 15.5832C8.87334 16.2913 7.97129 16.7735 6.98923 16.9689C6.00718 17.1644 4.98923 17.0642 4.06412 16.681C3.13901 16.2979 2.34829 15.649 1.79198 14.8165C1.23566 13.9839 0.938721 13.0051 0.938721 12.0038C0.938721 11.0025 1.23566 10.0236 1.79198 9.1911C2.34829 8.35856 3.13901 7.70968 4.06412 7.32654C4.98923 6.9434 6.00718 6.84321 6.98923 7.03863C7.97129 7.23404 8.87334 7.7163 9.5813 8.4244C9.5896 8.43205 9.59742 8.44019 9.60474 8.44878L15.2297 14.7994C15.7817 15.3468 16.4833 15.7186 17.2462 15.868C18.0092 16.0173 18.7992 15.9374 19.5168 15.6385C20.2344 15.3395 20.8475 14.8348 21.2787 14.188C21.7099 13.5412 21.94 12.7812 21.94 12.0038C21.94 11.2264 21.7099 10.4664 21.2787 9.81958C20.8475 9.17276 20.2344 8.66806 19.5168 8.3691C18.7992 8.07013 18.0092 7.99028 17.2462 8.13959C16.4833 8.28891 15.7817 8.66072 15.2297 9.20815L14.4263 10.1147C14.3771 10.1701 14.3174 10.2153 14.2507 10.2476C14.184 10.28 14.1116 10.2988 14.0376 10.3032C13.9636 10.3075 13.8894 10.2973 13.8194 10.273C13.7494 10.2487 13.6848 10.2108 13.6294 10.1616C13.574 10.1123 13.5289 10.0527 13.4965 9.98597C13.4642 9.91927 13.4453 9.84686 13.441 9.77286C13.4366 9.69886 13.4469 9.62474 13.4712 9.55471C13.4955 9.48468 13.5333 9.42012 13.5826 9.36472L14.3972 8.44503C14.4046 8.43644 14.4124 8.4283 14.4207 8.42065C15.1287 7.71279 16.0307 7.23075 17.0126 7.03547C17.9945 6.84019 19.0123 6.94044 19.9373 7.32355C20.8623 7.70667 21.6529 8.35543 22.2091 9.18782C22.7654 10.0202 23.0624 10.9989 23.0626 12Z" fill="#A5E600"/>
</svg>
