<svg width="24" height="24" viewBox="0 0 24 24" fill="none" xmlns="http://www.w3.org/2000/svg">
<path d="M10.7803 2.81179C11.231 1.7294 12.7694 1.7294 13.2202 2.81179L15.6019 8.5217L21.7822 9.0161C22.9546 9.1097 23.4291 10.5691 22.5356 11.3325L17.8277 15.3562L19.2657 21.372C19.5393 22.5124 18.2942 23.4141 17.291 22.8024L12.0002 19.579L6.70804 22.8011C5.70486 23.4128 4.46112 22.511 4.73339 21.3706L6.17274 15.3549L1.46346 11.3312C0.571297 10.5678 1.0458 9.10838 2.21684 9.01478L8.39852 8.52039L10.7803 2.81179ZM12.0002 3.31805L9.61847 9.02928C9.525 9.25291 9.37157 9.44652 9.17501 9.58885C8.97845 9.73119 8.74637 9.81675 8.50426 9.83613L2.3239 10.3305L7.03186 14.3542C7.2168 14.5119 7.35452 14.7174 7.42985 14.9482C7.50518 15.179 7.51519 15.426 7.45878 15.6621L6.01942 21.6778L11.3116 18.4531C11.519 18.3268 11.7572 18.26 12.0002 18.26C12.2432 18.26 12.4814 18.3268 12.6888 18.4531L17.981 21.6778L16.5416 15.6621C16.4851 15.4261 16.4949 15.1792 16.57 14.9484C16.6451 14.7177 16.7825 14.5121 16.9672 14.3542L21.6765 10.3305L15.4962 9.83613C15.254 9.81675 15.022 9.73119 14.8254 9.58885C14.6288 9.44652 14.4754 9.25291 14.3819 9.02928L12.0002 3.31805Z" fill="#A5E600"/>
</svg>
