<svg width="25" height="25" viewBox="0 0 25 25" fill="none" xmlns="http://www.w3.org/2000/svg">
<path fill-rule="evenodd" clip-rule="evenodd" d="M11.5739 2.75074C11.6179 2.56202 11.735 2.39849 11.8995 2.29614C12.0641 2.19379 12.2625 2.16099 12.4513 2.20496L16.5869 3.16857C16.7757 3.21255 16.9392 3.32969 17.0415 3.49423C17.1439 3.65877 17.1767 3.85722 17.1327 4.04595L16.1844 8.11616L20.1851 6.90275C20.3703 6.84689 20.5701 6.86675 20.7406 6.95796C20.9112 7.04917 21.0386 7.2043 21.095 7.38933L22.3282 11.4532C22.3845 11.6386 22.3648 11.8388 22.2735 12.0097C22.1822 12.1806 22.0267 12.3083 21.8413 12.3645L17.8406 13.578L20.893 16.4348C20.9632 16.5004 21.0198 16.5792 21.0595 16.6667C21.0992 16.7543 21.1212 16.8488 21.1244 16.9448C21.1275 17.0409 21.1116 17.1366 21.0777 17.2266C21.0437 17.3165 20.9924 17.3988 20.9266 17.4689L18.0245 20.5677C17.892 20.7092 17.7088 20.7922 17.5151 20.7986C17.3215 20.8049 17.1332 20.7341 16.9918 20.6017L13.9408 17.7452L12.9924 21.8154C12.9485 22.0042 12.8313 22.1677 12.6668 22.27C12.5022 22.3724 12.3038 22.4052 12.1151 22.3612L7.97937 21.3976C7.79065 21.3536 7.62713 21.2365 7.52477 21.0719C7.42242 20.9074 7.38962 20.7089 7.43359 20.5202L8.38195 16.45L4.38263 17.6638C4.19721 17.72 3.99703 17.7004 3.82612 17.609C3.65521 17.5177 3.52758 17.3623 3.47129 17.1768L2.23774 13.1144C2.18147 12.929 2.20115 12.7288 2.29247 12.5579C2.38378 12.387 2.53924 12.2593 2.72466 12.203L6.72575 10.9882L3.67335 8.13141C3.53191 7.99897 3.44887 7.81576 3.4425 7.6221C3.43613 7.42843 3.50696 7.24016 3.63939 7.09871L6.54186 3.99845C6.6743 3.857 6.85751 3.77396 7.05117 3.7676C7.24484 3.76123 7.43311 3.83205 7.57455 3.96449L10.6255 6.82096L11.5739 2.75074Z" fill="#2E2F36"/>
</svg>
