<svg width="21" height="21" viewBox="0 0 21 21" fill="none" xmlns="http://www.w3.org/2000/svg">
<path fill-rule="evenodd" clip-rule="evenodd" d="M9.361 0.563717C9.40494 0.375525 9.52199 0.21246 9.68642 0.110394C9.85084 0.00832808 10.0492 -0.0243781 10.2377 0.0194706L14.3705 0.980377C14.5591 1.02423 14.7225 1.14104 14.8247 1.30512C14.927 1.46919 14.9598 1.66709 14.9159 1.85529L13.9682 5.91407L17.9661 4.70406C18.1511 4.64836 18.3508 4.66816 18.5212 4.75912C18.6917 4.85008 18.819 5.00477 18.8753 5.18928L20.1077 9.24175C20.1639 9.42664 20.1442 9.62626 20.053 9.79669C19.9617 9.96711 19.8064 10.0944 19.6211 10.1505L15.6232 11.3605L18.6734 14.2093C18.7436 14.2747 18.8001 14.3534 18.8398 14.4406C18.8795 14.5279 18.9015 14.6222 18.9046 14.7179C18.9078 14.8137 18.8919 14.9092 18.858 14.9989C18.8241 15.0886 18.7728 15.1707 18.707 15.2405L15.807 18.3307C15.6746 18.4717 15.4915 18.5545 15.298 18.5609C15.1045 18.5672 14.9164 18.4966 14.775 18.3645L11.7262 15.5161L10.7785 19.5749C10.7346 19.763 10.6175 19.9261 10.4531 20.0282C10.2887 20.1302 10.0904 20.163 9.90178 20.1191L5.76905 19.1582C5.58046 19.1143 5.41706 18.9975 5.31478 18.8335C5.2125 18.6694 5.17972 18.4715 5.22366 18.2833L6.17135 14.2245L2.17487 15.4348C1.98958 15.491 1.78955 15.4713 1.61876 15.3803C1.44798 15.2892 1.32043 15.1342 1.26419 14.9493L0.0315213 10.8982C-0.0247151 10.7133 -0.00504554 10.5137 0.0862031 10.3433C0.177452 10.1729 0.332806 10.0456 0.51809 9.98947L4.51632 8.77805L1.4661 5.92927C1.32476 5.7972 1.24178 5.61451 1.23542 5.42139C1.22906 5.22827 1.29983 5.04053 1.43217 4.89948L4.33256 1.80792C4.46491 1.66687 4.64799 1.58407 4.84151 1.57772C5.03504 1.57137 5.22317 1.64199 5.36452 1.77406L8.41331 4.6225L9.361 0.563717Z" fill="white"/>
</svg>
