<svg width="22" height="22" viewBox="0 0 22 22" fill="none" xmlns="http://www.w3.org/2000/svg">
<path d="M16.9856 11.4858C17.1137 11.3566 17.1855 11.1819 17.1855 11C17.1855 10.818 17.1137 10.6434 16.9856 10.5141L12.4023 5.93081C12.3393 5.86326 12.2634 5.80909 12.1791 5.77151C12.0948 5.73394 12.0037 5.71373 11.9114 5.7121C11.8191 5.71047 11.7274 5.72745 11.6418 5.76203C11.5562 5.79661 11.4784 5.84808 11.4132 5.91336C11.3479 5.97864 11.2964 6.05641 11.2618 6.14201C11.2273 6.22762 11.2103 6.31931 11.2119 6.41162C11.2135 6.50393 11.2337 6.59497 11.2713 6.67931C11.3089 6.76364 11.3631 6.83954 11.4306 6.90248L14.8406 10.3125L5.49978 10.3125C5.31745 10.3125 5.14258 10.3849 5.01365 10.5138C4.88471 10.6428 4.81228 10.8176 4.81228 11C4.81228 11.1823 4.88471 11.3572 5.01365 11.4861C5.14258 11.615 5.31745 11.6875 5.49978 11.6875L14.8406 11.6875L11.4306 15.0975C11.3092 15.2278 11.2431 15.4002 11.2462 15.5783C11.2493 15.7564 11.3215 15.9263 11.4475 16.0523C11.5734 16.1783 11.7434 16.2504 11.9215 16.2536C12.0996 16.2567 12.272 16.1906 12.4023 16.0691L16.9856 11.4858Z" fill="white"/>
</svg>
